<svg xmlns="http://www.w3.org/2000/svg" viewBox="0 0 162.1 162.45"><path d="M101.49,162.38c-14.07-.34-23.7-3.52-32.69-8.55-25.81-14.46-46.04-34.64-60.42-60.5C2.41,82.59-1.08,71.16,.3,58.52c1.15-10.48,7.9-17.01,15.37-22.98,1.22-.97,5.02-.49,6.33,.72,6.99,6.44,13.63,13.28,20.26,20.1,2.21,2.27,2.05,4.92,.02,7.36-.65,.78-1.35,1.55-2.15,2.17-7.17,5.67-8.1,12.7-4.41,20.62,8.68,18.6,22.27,32.26,41.19,40.41,7.13,3.07,13.48,2.11,18.63-4.12,.79-.96,1.71-1.81,2.65-2.64,2.62-2.31,5.42-2.42,7.9,0,6.72,6.57,13.35,13.24,19.93,19.96,1.98,2.02,2.28,4.66,.51,6.83-7.41,9.08-15.92,16.25-25.06,15.43Z"/>
  <path d="M39.75,0h116.78c.28,.33,.55,.66,.83,.99-.87,.48-1.88,.82-2.59,1.47-17,15.5-33.96,31.03-50.94,46.55-4.08,3.73-6.16,3.76-10.23,.05C76.62,33.55,59.65,18.02,42.68,2.5c-.67-.61-1.37-1.17-2.93-2.5Z"/>
  <path d="M157.72,92.42c-2.11,0-3.11,0-4.11,0-34.97,0-69.94-.02-104.91,.05-2.61,0-4.4-.51-4.93-3.81,13.81-12.62,27.82-25.42,42.28-38.62,8.14,9.94,16.64,10.64,25.15-.09,15.43,14.09,30.59,27.93,46.51,42.47Z"/>
  <path d="M162.1,88.35c-15.68-14.32-30.78-28.11-46.26-42.24,15.33-14.02,30.52-27.91,46.26-42.3V88.35Z"/>
  <path d="M35.57,4.1V37.41c1.47,5.09,4.6,9.45,9.49,13.43,6.75,5.49,6.26,12.24,.08,18.47-.8,.8-1.6,1.6-2.4,2.4-3.63,3.66-4,5.95-1.59,11.24,13.43-12.26,26.76-24.43,40.38-36.86-15.54-14.2-30.68-28.04-45.96-42Z"/></svg>