<svg xmlns="http://www.w3.org/2000/svg" xml:space="preserve" id="Слой_1" x="0" y="0" style="enable-background:new 0 0 676.3 475" version="1.1" viewBox="0 0 676.3 475">
  <style>
    .st0{fill:#3b4578}
  </style>
  <path d="M57.1 417.4c32.2-2.2 30.5-54.2-3.4-51.9h-37v1.4h1.8c4.7-.1 8.7 4 8.8 8.6v75.9c-.1 5.5-5.3 9.4-10.5 8.6v1.4H46.6V460H45c-4.6.1-8.9-4-8.8-8.6v-81.7c6.4 0 11.1-.3 17 .1 24.1 1.4 26 48.5-12.5 43.3v1.4c5.4-.1 9.4 5.3 12.6 9.2 14.3 18.8 21.1 41 49.5 37.7V460c-22.9-1.9-28.3-31.4-45.7-42.6zM126.9 365.5h-19v1.4h1.8c4.7-.1 8.7 4 8.8 8.6v75.9c-.1 5.5-5.3 9.4-10.5 8.6v1.4h29.9V460c-5 .8-10.6-3.2-10.5-8.6v-75.9c0-5.4 5.5-9.4 10.5-8.6v-1.4h-11z"/>
  <path d="M169 437.2c-26.1-60.1 47.9-97.9 68.6-44.9h1.2l-2.7-19.3c-80.9-46.7-121 83.1-33.3 90.4 16.1.3 30.4-7 38.5-20.4l1.6-21.5h-1.1c0 41.1-56.9 51.6-72.8 15.7zM344.4 365.5h-19v1.4c5-.8 10.8 3.2 10.5 8.6v36.4h-56v-36.4c0-5.4 5.5-9.4 10.5-8.6v-1.4h-29.9v1.4h1.8c4.7-.1 8.7 4 8.8 8.6v75.9c-.1 5.5-5.3 9.4-10.5 8.6v1.4H290.4V460c-5 .8-10.6-3.2-10.5-8.6v-35.3h56v35.3c.2 5.5-5.6 9.4-10.5 8.6v1.4h29.9V460h-1.8c-4.7.1-8.7-4-8.8-8.6v-75.9c.1-5.5 5.3-9.4 10.5-8.6v-1.4h-10.8zM452 451.4l-36.7-87.8H414c.2 3.5-27.2 66.5-37 89.6-2.7 4.6-7.3 7.1-12.4 6.8v1.4h27.5V460c-4.6.5-8-3.2-6.7-7.7l9.5-24.2h37l9.2 24.5c1.2 4.6-2.6 7.9-6.8 7.5v1.4h30.8V460c-5.5.3-10.8-2.8-13.1-8.6zM396.6 424l17.2-44 16.6 44h-33.8zM514.7 417.4c32.2-2.2 30.5-54.2-3.4-51.9h-36.9v1.4h1.8c4.7-.1 8.7 4 8.8 8.6v75.9c-.1 5.5-5.3 9.4-10.5 8.6v1.4H504.3V460h-1.6c-4.6.1-8.9-4-8.8-8.6v-81.7c6.4 0 11.1-.3 17 .1 24.1 1.4 26 48.5-12.5 43.3v1.4c5.4-.1 9.4 5.3 12.6 9.2 14.3 18.8 21.1 41 49.5 37.7V460c-23.1-1.9-28.4-31.4-45.8-42.6zM611.8 365.5h-46.4l.1 1.4h1.6c4.6-.1 8.9 4 8.8 8.6v75.9c-.1 5.5-5.3 9.4-10.5 8.6v1.4h19.4c15.6-.2 40.3 2.1 52.7-6 42.2-23 24.1-93.4-25.7-89.9zm0 91.8h-27v-87.7h27c24.2-.6 39.6 20.5 38.9 43.8.7 23.4-14.5 44.5-38.9 43.9z"/>
  <path d="M267.2 171.1h-54.3v-34.3h54.3v34.3zM94.6 59.8v111.3h54.9V59.8H94.6zm45.7 64.8h-4.1v-16.9h4.1v16.9zM153.8 59.8v111.3h54.9V59.8h-54.9zm9.2 48h4.1v16.9H163v-16.9zM229 175.4v85h58.2v-85H229zm14.2 50.9h-4.4v-16.8h4.4M75.4 175.4v85h58.2v-85H75.4zm48.4 50.9h-4.4v-16.8h4.4v16.8zM414.6 90.9c1.2-1.6 2.6-.9 3.9-.9h47c4.2 0 8.3.5 12.4 1.6 12.3 3.4 20.2 11.5 23.5 23.6 3.9 14.1 2.8 27.7-5.4 40.3-6.2 9.4-12.3 13.6-23.2 15.6 0 .3-.2.8-.1.9 9 7.8 14.4 18.3 20.8 27.9 5.1 7.6 10.1 15.3 16 22.3 6.4 7.5 13.6 13.8 23.8 15.4.4.1.8.5 1.2.8-.5 1.7-1.9 1.1-3 1.1-10 .4-19.6-.4-28.2-6.4-5.7-4-10.3-9-14-14.8-7.2-11.2-14.2-22.5-21.3-33.8-.8-1.3-1.5-2.6-2.4-3.8-4.5-6.3-9-12.8-17.7-14.9 1.7-1.6 3.1-1.3 4.3-1.3 3.7 0 7.3-.2 11-.7 13.2-1.8 22.1-9.4 25.1-22.3 2.4-10.6 1.7-21.2-3-31.2-4.3-8.9-11.4-13.7-21.4-13.8-7.3-.1-14.6 0-21.5 0-1.5 2.2-1 4.1-1 5.9 0 39.8 0 79.6-.1 119.5 0 5.8 1.5 10.8 6.7 14.2 2.3 1.5 5.1 1.1 7.7 2.2-2.8 1.5-33.7 2-41 .7.3-1.6 1.7-1.2 2.7-1.4 7-1.3 11.2-5.8 11.7-12.9.1-1.2.1-2.3.1-3.5v-113c0-1.3 0-2.7-.1-4-.6-6.2-4.7-10.9-10.7-12.3-1.4-.1-2.6.2-3.8-1zM224.7 260.4V220h-86.9v40.4h86.9zm-34.9-30.1h-17.1V226h17.1v4.3zM137.9 175.4v40.4h86.9v-40.4h-86.9zm51.9 34.4h-17.1v-4.4h17.1v4.4z" class="st0"/>
  <path d="M342.6 310.4c-2.5.8-4.4.5-6.7.2V13c2.2-.8 4.2-.7 6.7 0v297.4z"/>
  <path d="M213.2 59.8h54.1v34.3h-54.1V59.8zM213.1 132.5V98.3h54.3v34.2h-54.3z" class="st0"/>
</svg>
