<svg xmlns="http://www.w3.org/2000/svg" viewBox="0 0 152.31 122.17" width="40" height="40"><path d="M144.99,83.76V50.9c-9.71-9.71-18.81-18.8-28.36-28.34h-17.77V0H0V99.16H14.91c.48,6.33,2.35,11.77,6.67,16.15,4.44,4.51,9.92,6.72,16.12,6.83,4.94,.09,9.56-1.39,13.6-4.36,6.14-4.52,9.02-10.83,9.51-18.37h30.34c3.88,15.34,10.34,21.98,22.15,22.71,4.82,.3,9.36-.98,13.44-3.6,6.95-4.45,10.05-11.2,10.71-19.47h14.86v-14.95c-2.47-.12-4.7-.23-7.33-.36Zm-95.52,16.75c0,6.4-5.19,11.6-11.6,11.6s-11.6-5.19-11.6-11.6h0c0-6.4,5.19-11.6,11.6-11.6s11.6,5.19,11.6,11.6h0Zm76.55,0c0,6.4-5.19,11.6-11.6,11.6s-11.6-5.19-11.6-11.6h0c0-6.4,5.19-11.6,11.6-11.6s11.6,5.19,11.6,11.6h0Zm3.57-39.69h-30.32v-22.46h11.84c6.04,6.08,12.12,12.21,18.48,18.61v3.86Z"/></svg>