<svg xmlns="http://www.w3.org/2000/svg" viewBox="0 0 126.16 126.3" width="40" height="40"><path d="M55.04,126.06v-23.13c4.75-2.93,8.34-6.54,9.09-12.27,.11-.87,1.14-1.7,1.89-2.4,4.34-4.08,5.6-8.96,4.03-14.68-.34-1.22-.62-2.6-.4-3.81,1.7-9.12,1.07-11.38-4.96-17.26-1.04-2.72-1.71-5.29-2.95-7.55-1.86-3.4-5.03-5.17-8.77-6.09-1.33-.33-2.88-.83-3.75-1.78-4.47-4.84-9.69-6.46-15.99-4.33-.35,.12-.77,.06-1.19,.08,0-7.05-.8-14.17,.22-21.02,1.02-6.86,6.42-11.24,13.25-11.52,13.46-.56,26.95-.16,40.91-.16,.14,1.68,.36,3.19,.36,4.69,.03,8.52-.01,17.04,.03,25.56,.03,6.43,2.62,8.95,9.14,8.97,8.39,.02,16.77,0,25.16,0,1.42,0,2.84,0,4.65,0,.14,1.76,.35,3.15,.36,4.54,.02,21.63,.05,43.26,0,64.89-.03,10.8-6.69,17.47-17.41,17.49-16.64,.04-33.28,.02-49.92,0-1.27,0-2.54-.14-3.76-.22Z"/>
  <path d="M57.06,86.33c-.26,5.45-2.17,10.02-9.59,9.98,0,2.37,0,4.43,0,6.48,0,6.03,.08,12.06-.03,18.09-.09,5.02-3,6.61-7.23,4.03-2.89-1.77-5.69-3.69-8.72-5.67-2.61,1.73-5.1,3.4-7.61,5.02-1.85,1.19-3.63,2.76-6.08,1.29-2.2-1.31-2.08-3.44-2.08-5.55,0-6.29,0-12.58,0-18.87,0-1.42,0-2.83,0-4.15-5.83-1.36-9.71-3.87-9.62-10.27,.01-1.04-1.63-2.23-2.7-3.13-3.48-2.9-4.19-4.69-2.57-8.87,1.02-2.64,.91-4.98-.07-7.58-1.5-3.97-.71-5.74,2.47-8.6,1.35-1.22,2.76-2.91,3.12-4.6,1.37-6.29,1.8-6.91,8.23-8.08,.64-.12,1.29-.22,1.82-.31,.22-.13,.38-.17,.44-.27,3.59-6.04,8.59-6.8,14.7-4.18,.86,.37,2.26-.41,3.37-.77,4.76-1.54,6-1.21,9.24,2.56,.68,.79,1.36,1.58,2.37,2.76,7-.39,10.67,3.27,10.33,10.72,6.65,3.41,7.84,8.33,4.2,14.08q2.65,8.96-3.99,15.88Zm-25.67,.25c8.33,.08,15.59-6.97,15.76-15.32,.17-8.27-6.96-15.64-15.27-15.8-8.65-.16-15.84,6.87-15.86,15.51-.02,8.51,6.89,15.52,15.38,15.6Z"/>
  <path d="M123.68,31.57h-28.88V2.69c9.38,9.38,19.27,19.27,28.88,28.88Z"/></svg>