<svg xmlns="http://www.w3.org/2000/svg" viewBox="0 0 139.53 160.03" width="40" height="40" fill="#EDB500"><path d="M139.52 22.51C139.49 7.99 131.44.02 116.8.01c-31.34-.02-62.69-.02-94.03 0C8.11.02.03 7.99.02 22.48-.01 60.83 0 99.17.02 137.52c0 14.51 8.08 22.49 22.72 22.49 31.34.02 62.69.02 94.03 0 14.83 0 22.74-8 22.75-22.97.02-19.01 0-38.01 0-57.02 0-19.17.02-38.35 0-57.52zM19.48 33.53c0-2.12 1.71-3.83 3.83-3.83h12.94c2.12 0 3.83 1.71 3.83 3.83v12.94c0 2.12-1.71 3.83-3.83 3.83H23.31c-2.12 0-3.83-1.71-3.83-3.83V33.53zm20.6 92.97c0 2.12-1.71 3.83-3.83 3.83H23.31c-2.12 0-3.83-1.71-3.83-3.83v-3.44c-.06-1.77-.04-3.54 0-5.31v-4.19c0-2.12 1.71-3.83 3.83-3.83h12.94c2.12 0 3.83 1.71 3.83 3.83v12.94zm8.46-53.3A650.562 650.562 0 0133 88.74c-1.91 1.85-4.34 1.9-6.34.11a121.8 121.8 0 01-8.15-8.08c-1.99-2.16-1.89-4.63.19-6.7 2.05-2.04 4.46-2.08 6.78-.35 1.44 1.07 2.76 2.31 4.36 3.66 2.93-2.82 5.67-5.47 8.42-8.1 1.08-1.04 2.12-2.13 3.29-3.05 2.3-1.82 4.65-1.72 6.73.33 2.1 2.07 2.33 4.5.26 6.65zm16.29-38.43h49.9c2.89 0 5.23 2.34 5.23 5.23s-2.34 5.23-5.23 5.23h-49.9c-2.89 0-5.23-2.34-5.23-5.23s2.34-5.23 5.23-5.23zm49.93 90.48h-49.9c-2.89 0-5.23-2.34-5.23-5.23s2.34-5.23 5.23-5.23h49.9c2.89 0 5.23 2.34 5.23 5.23s-2.34 5.23-5.23 5.23zm0-40.02h-49.9c-2.89 0-5.23-2.34-5.23-5.23s2.34-5.23 5.23-5.23h49.9c2.89 0 5.23 2.34 5.23 5.23s-2.34 5.23-5.23 5.23z"/></svg>