<svg xmlns="http://www.w3.org/2000/svg" viewBox="0 0 159.32 139.88" width="40" height="40" fill="#E82626"><path d="M40.17 57.11c15.42-8.23 30.53-16.3 45.64-24.37 8.95-4.78 13.45-2.05 13.49 8.17.02 4.83.04 9.66.09 14.49 0 .31.19.62.31 1 2.05.7 3.42-.88 4.93-1.68 14.12-7.48 28.18-15.08 42.29-22.59 7.41-3.94 12.35-.95 12.36 7.55.05 27.82.05 55.64 0 83.46-.02 10.76-5.95 16.69-16.78 16.7-41.81.05-83.62.05-125.44 0C5.92 139.83.03 133.97.02 122.89-.01 85.91 0 48.93.02 11.95.03 3.49 3.42.09 11.76.04c5.5-.04 11-.07 16.49.01 7.44.1 10.98 3.63 11.02 11.11.07 13.33 0 26.65.05 39.98 0 1.77-.44 3.62.85 5.97zm-.29 30.11q-13.02 0-13.02 12.24 0 13.2 13.06 13.2 12.52 0 12.52-12.74T39.88 87.21zm52.56 13.17q0-13.18-13.08-13.17-12.49 0-12.49 12.27 0 13.17 13.08 13.17 12.49 0 12.49-12.27zm14.42-.61q0 12.88 12.88 12.88 12.7 0 12.7-12.56 0-12.88-12.88-12.88-12.7 0-12.7 12.56z"/></svg>