<svg xmlns="http://www.w3.org/2000/svg" viewBox="0 0 199.44 120.34" width="40" height="40"><path d="M159.4,95.1c0,5,.12,10-.03,15-.2,6.28-3.76,9.96-10.04,10.06-10.33,.17-20.68,.39-30.98-.18-2.71-.15-6.68-2.62-7.49-4.93-.84-2.38,.63-6.7,2.58-8.7,3.89-3.98,7.78-7.49,6.05-13.69-1.87-6.69-6.91-9.9-13.21-11.58-7.14-1.9-13.93-1-20.11,3.05-8.24,5.4-8.94,14.56-1.56,20.95,3.25,2.81,5.84,5.71,4.21,10.24-1.67,4.66-5.76,4.93-9.92,4.91-9.17-.04-18.33,.03-27.5-.03-7.83-.05-11.34-3.5-11.41-11.26-.08-9.5-.05-19-.01-28.5,.02-4.22-.52-8.19-5.19-9.76-4.25-1.43-7.26,.74-10.02,3.8-7.35,8.16-16.16,7.36-21.44-2.26-4.8-8.74-4.42-17.72,1.18-26.04,5.19-7.71,13.56-8.02,19.75-1.1,.22,.25,.43,.51,.63,.78,2.52,3.38,5.63,5.11,9.94,3.63,4.5-1.55,5.15-5.19,5.14-9.25-.02-9.33-.03-18.67,0-28,.03-8.67,3.4-12.05,12.13-12.11,9.67-.06,19.35-.37,28.98,.22,2.71,.17,6.48,2.59,7.48,4.95,.9,2.13-.47,6.42-2.32,8.3-4.14,4.21-8.29,7.97-6.22,14.58,2.19,7,7.62,10.4,14.34,11.7,6.75,1.3,13.33,.33,19.13-3.68,7.92-5.46,8.59-14.42,1.41-20.67-3.37-2.94-6.13-5.91-4.22-10.65,1.85-4.58,6.01-4.62,10.12-4.62,9.33,0,18.66-.08,28-.08,6.85,0,10.48,3.47,10.57,10.43,.13,9.83,.05,19.67,.04,29.5,0,4.05,.66,7.71,5.09,9.32,4.35,1.58,7.46-.46,9.97-3.67,8.23-10.49,19.15-4.62,22.61,3.73,3.26,7.85,3.31,15.63-.99,23.09-5.28,9.16-14.44,10.06-21.27,2.09-2.84-3.32-5.95-5.5-10.38-3.94-4.65,1.64-5.07,5.68-5.04,9.87,.04,4.83,0,9.67,0,14.5h-.02Z"/></svg>